<?xml version="1.0" encoding="utf-8"?>
<!-- Generator: Adobe Illustrator 24.0.1, SVG Export Plug-In . SVG Version: 6.00 Build 0)  -->
<svg version="1.1" id="Calque_1" xmlns="http://www.w3.org/2000/svg" xmlns:xlink="http://www.w3.org/1999/xlink" x="0px" y="0px"
	 viewBox="0 0 1368 360" style="enable-background:new 0 0 1368 360;" xml:space="preserve">
<style type="text/css">
	.st0{fill:#F7F0D2;stroke:#181B1C;stroke-width:4;stroke-miterlimit:10;}
	.st1{fill:#181B1C;}
	.st2{fill:#AA1753;}
	.st3{fill:#E2608C;}
	.st4{fill:#364056;}
	.st5{fill:#FC9856;}
	.st6{fill:none;stroke:#181B1C;stroke-width:9;stroke-miterlimit:10;}
	.st7{stroke:#000000;stroke-width:4;stroke-miterlimit:10;}
	.st8{fill:#FFFFFF;}
	.st9{fill:none;stroke:#FFFFFF;stroke-width:3;stroke-miterlimit:10;}
	.st10{stroke:#000000;stroke-width:5;stroke-miterlimit:10;}
	.st11{fill:none;stroke:#181B1C;stroke-width:3;stroke-miterlimit:10;}
	.st12{fill:#181B1C;stroke:#181B1C;stroke-miterlimit:10;}
	.st13{fill:#FFFFFF;stroke:#181B1C;stroke-width:0.25;stroke-miterlimit:10;}
	.st14{display:none;fill:#2A363A;stroke:#181B1C;stroke-width:0.25;stroke-miterlimit:10;}
	.st15{fill:#181B1C;stroke:#181B1C;stroke-width:0.25;stroke-miterlimit:10;}
	.st16{fill:#101010;stroke:#181B1C;stroke-width:0.25;stroke-miterlimit:10;}
	.st17{clip-path:url(#SVGID_2_);fill:#707070;}
	.st18{clip-path:url(#SVGID_2_);fill:#181B1C;}
	.st19{font-family:'BebasNeue';}
	.st20{font-size:120px;}
	.st21{font-size:60px;}
</style>
<path class="st0" d="M69.08,181.69c-11.13,1.22-22.22,2.59-33.32,4.12c-1.84,0.26-2.67,1.81-1.55,2.84
	c5.25,4.78,10.41,9.63,15.46,14.53c0.47,0.46,0.61,1.06,0.37,1.61c-2.58,5.88-5.05,11.79-7.4,17.72c-0.5,1.27,0.94,2.48,2.66,2.23
	c9.48-1.3,18.96-2.49,28.47-3.55"/>
<path class="st0" d="M281.79,181.41c0,0,23.97,2.75,35.93,4.41c1.84,0.26,2.67,1.81,1.55,2.84c-5.25,4.78-10.41,9.63-15.46,14.53
	c-0.47,0.46-0.61,1.06-0.37,1.61c2.58,5.88,5.05,11.79,7.4,17.72c0.5,1.27-0.94,2.48-2.66,2.23c-10.13-1.39-30.43-3.77-30.43-3.77
	L281.79,181.41z"/>
<g>
	<g>
		<path class="st1" d="M323.03,206.01c0,0-5.17,17.74-19.25,13.36C306.12,204.08,323.03,206.01,323.03,206.01z"/>
		<path class="st1" d="M290.09,200.47c0,0,17.74,5.17,13.36,19.25C288.16,217.38,290.09,200.47,290.09,200.47z"/>
	</g>
	<g>
		<path class="st1" d="M315.18,237.43c0,0-8.77,16.27-21.62,9.04C299.05,232.02,315.18,237.43,315.18,237.43z"/>
		<path class="st1" d="M284.12,225.13c0,0,16.27,8.77,9.04,21.62C278.7,241.27,284.12,225.13,284.12,225.13z"/>
	</g>
	<g>
		<path class="st1" d="M302.67,267.06c0,0-11.65,14.34-22.93,4.84C287.83,258.72,302.67,267.06,302.67,267.06z"/>
		<path class="st1" d="M274.45,249.17c0,0,14.34,11.65,4.84,22.93C266.11,264.01,274.45,249.17,274.45,249.17z"/>
	</g>
	<g>
		<path class="st1" d="M284.85,295.36c0,0-15.13,10.61-23.38-1.61C272.85,283.28,284.85,295.36,284.85,295.36z"/>
		<path class="st1" d="M262.6,270.44c0,0,10.61,15.13-1.61,23.38C250.52,282.43,262.6,270.44,262.6,270.44z"/>
	</g>
	<g>
		<path class="st1" d="M260.46,317.18c0,0-16.84,7.6-22.67-5.95C250.93,303.07,260.46,317.18,260.46,317.18z"/>
		<path class="st1" d="M243.25,288.54c0,0,7.6,16.85-5.94,22.67C229.15,298.07,243.25,288.54,243.25,288.54z"/>
	</g>
	<g>
		<path class="st1" d="M233,333.39c0,0-17.87,4.69-21.36-9.63C225.95,317.9,233,333.39,233,333.39z"/>
		<path class="st1" d="M220.79,302.29c0,0,4.7,17.88-9.63,21.36C205.3,309.34,220.79,302.29,220.79,302.29z"/>
	</g>
	<path class="st1" d="M193.92,328.05c-0.42-0.32-0.73-0.8-0.81-1.37c-0.17-1.14,0.62-2.21,1.76-2.38
		c44.09-6.55,70.79-34.83,85.42-57.41c15.91-24.55,21.4-47.77,21.45-48c0.26-1.13,1.39-1.83,2.51-1.57
		c1.13,0.26,1.83,1.39,1.57,2.51c-0.23,0.98-5.71,24.17-22.01,49.33c-15.1,23.3-42.68,52.5-88.32,59.28
		C194.91,328.53,194.35,328.37,193.92,328.05z"/>
</g>
<g>
	<g>
		<path class="st1" d="M30.37,206.01c0,0,5.17,17.74,19.25,13.36C47.28,204.08,30.37,206.01,30.37,206.01z"/>
		<path class="st1" d="M63.32,200.47c0,0-17.74,5.17-13.36,19.25C65.25,217.38,63.32,200.47,63.32,200.47z"/>
	</g>
	<g>
		<path class="st1" d="M38.22,237.43c0,0,8.77,16.27,21.62,9.04C54.36,232.02,38.22,237.43,38.22,237.43z"/>
		<path class="st1" d="M69.29,225.13c0,0-16.27,8.77-9.04,21.62C74.7,241.27,69.29,225.13,69.29,225.13z"/>
	</g>
	<g>
		<path class="st1" d="M50.74,267.06c0,0,11.65,14.34,22.93,4.84C65.58,258.72,50.74,267.06,50.74,267.06z"/>
		<path class="st1" d="M78.96,249.17c0,0-14.34,11.65-4.84,22.93C87.29,264.01,78.96,249.17,78.96,249.17z"/>
	</g>
	<g>
		<path class="st1" d="M68.56,295.36c0,0,15.13,10.61,23.38-1.61C80.55,283.28,68.56,295.36,68.56,295.36z"/>
		<path class="st1" d="M90.81,270.44c0,0-10.61,15.13,1.61,23.38C102.88,282.43,90.81,270.44,90.81,270.44z"/>
	</g>
	<g>
		<path class="st1" d="M92.95,317.18c0,0,16.84,7.6,22.67-5.95C102.48,303.07,92.95,317.18,92.95,317.18z"/>
		<path class="st1" d="M110.16,288.54c0,0-7.6,16.85,5.94,22.67C124.26,298.07,110.16,288.54,110.16,288.54z"/>
	</g>
	<g>
		<path class="st1" d="M120.41,333.39c0,0,17.87,4.69,21.36-9.63C127.46,317.9,120.41,333.39,120.41,333.39z"/>
		<path class="st1" d="M132.62,302.29c0,0-4.7,17.88,9.63,21.36C148.11,309.34,132.62,302.29,132.62,302.29z"/>
	</g>
	<path class="st1" d="M159.48,328.05c0.42-0.32,0.73-0.8,0.81-1.37c0.17-1.14-0.62-2.21-1.76-2.38
		c-44.09-6.55-70.79-34.83-85.42-57.41c-15.91-24.55-21.4-47.77-21.45-48c-0.26-1.13-1.39-1.83-2.51-1.57
		c-1.13,0.26-1.83,1.39-1.57,2.51c0.23,0.98,5.71,24.17,22.01,49.33c15.1,23.3,42.68,52.5,88.32,59.28
		C158.49,328.53,159.05,328.37,159.48,328.05z"/>
</g>
<polygon class="st2" points="176.63,200.4 227.03,201.62 277.36,205.19 276.57,228.74 261.29,256.58 232.56,281.54 205.72,298.04 
	177.49,311.93 "/>
<polyline class="st3" points="75.9,92.01 118.06,73.39 154.7,65.14 178.41,81.76 177.27,163.91 73.77,166.43 75.9,92.01 75.9,92.01 
	75.9,92.01 75.9,92.01 75.9,92.01 "/>
<polygon class="st4" points="76.21,204.91 77.59,233.84 97.55,263.16 131.75,289.59 175.71,310.65 175.71,199.19 "/>
<polygon class="st5" points="176.95,81.03 177.27,173.09 276.44,178.1 276.55,92.01 231.06,70.48 203.67,65.14 193.47,74.41 "/>
<path class="st6" d="M75.9,92.01v130.19c0,50.56,100.33,91.56,100.33,91.56s100.33-40.99,100.33-91.56V92.01
	c0,0-49.22-29.44-100.33-29.44C126.46,62.57,75.9,92.01,75.9,92.01z"/>
<line class="st7" x1="77.65" y1="180.02" x2="276.55" y2="180.02"/>
<g>
	<path class="st8" d="M148.12,210.97l-0.81-3.01c-0.19-0.69-0.86-1.11-1.5-0.93l-11.41,3.08c-0.64,0.17-1.01,0.87-0.82,1.56
		l0.81,3.01c-2,0.84-3.1,3.18-2.48,5.49l8.54,31.63l-13.35,3.61l-1.37-7.38l0.71-0.19c1.86-0.5,3.39-1.75,4.33-3.52
		c0.93-1.77,1.15-3.84,0.61-5.84c-1.07-3.95-4.8-6.42-8.49-5.71l-1.71-9.19c3.54-1.13,5.54-5.08,4.5-8.96
		c-0.19-0.69-0.86-1.11-1.5-0.93c-0.64,0.17-1.01,0.87-0.82,1.56c0.66,2.44-0.52,4.91-2.65,5.77l-0.08-0.45
		c-0.28-1.51-1.15-2.86-2.37-3.7c-1.23-0.84-2.72-1.11-4.11-0.74c-1.38,0.37-2.54,1.36-3.18,2.7c-0.64,1.35-0.71,2.95-0.19,4.39
		l0.16,0.46c-3.43,1.08-5.38,4.9-4.36,8.66c0.5,1.86,1.65,3.43,3.24,4.42c1.58,0.99,3.41,1.27,5.14,0.8l0.87-0.24l3.49,9.75
		l-0.63,0.17c-3.13,0.85-4.94,4.27-4.03,7.64c0.44,1.63,1.45,3.01,2.83,3.87c1.38,0.86,2.98,1.11,4.5,0.7l1.61-0.43l3.62,10.1
		c0.23,0.63,0.86,0.99,1.46,0.83c0.6-0.16,0.97-0.79,0.85-1.45l-1.96-10.55l13.55-3.66l0.33,1.22c0.62,2.31,2.75,3.78,4.91,3.49
		l0.81,3.01c0.19,0.69,0.86,1.11,1.5,0.93l11.41-3.08c0.64-0.17,1.01-0.87,0.82-1.56l-0.81-3.01c2-0.84,3.1-3.18,2.48-5.49
		l-9.55-35.35C152.4,212.15,150.27,210.68,148.12,210.97L148.12,210.97z M124.44,254.2l-1.91-5.32l0.87-0.24L124.44,254.2z
		 M129.07,239.09c0.36,1.33,0.21,2.71-0.41,3.89c-0.62,1.18-1.65,2.01-2.88,2.35l-0.51,0.14l-1.89-10.17
		C125.84,234.8,128.35,236.45,129.07,239.09L129.07,239.09z M114.29,235.06c-1.11,0.3-2.29,0.12-3.31-0.52
		c-1.02-0.64-1.76-1.64-2.08-2.84c-0.66-2.46,0.64-4.96,2.92-5.6l3.14,8.78L114.29,235.06z M114.15,225.47l1.2-0.32l0.47,1.74
		c0.19,0.69,0.86,1.11,1.5,0.93c0.64-0.17,1.01-0.87,0.82-1.56l-1.41-5.23c-0.19-0.69-0.86-1.11-1.5-0.93s-1.01,0.87-0.82,1.56
		l0.27,1l-1.4,0.38l-0.24-0.66c-0.28-0.78-0.24-1.61,0.1-2.33c0.34-0.72,0.94-1.23,1.69-1.43c0.74-0.2,1.52-0.06,2.18,0.39
		c0.66,0.45,1.11,1.15,1.26,1.96l4.67,25.14l-1.27,0.34L114.15,225.47z M121.33,256.96c-0.9,0.24-1.84,0.1-2.66-0.42
		c-0.82-0.51-1.41-1.32-1.67-2.29c-0.54-1.99,0.53-4.02,2.39-4.52l0.83-0.22l2.53,7.07L121.33,256.96z M159.26,246.75l-15.41,8.35
		c-0.03-0.07-0.05-0.14-0.07-0.21l-0.55-2.04l15.42-8.35L159.26,246.75z M157.96,241.94l-15.42,8.35l-0.61-2.26l15.42-8.35
		L157.96,241.94z M156.66,237.13l-15.42,8.35l-0.61-2.26l15.42-8.35L156.66,237.13z M155.36,232.31l-15.42,8.35l-0.61-2.26
		l15.42-8.35L155.36,232.31z M154.06,227.5l-15.42,8.35l-0.61-2.26l15.42-8.35L154.06,227.5z M152.76,222.69l-15.42,8.35l-0.61-2.26
		l15.42-8.35L152.76,222.69z M151.46,217.88l-15.42,8.35l-0.61-2.26l15.42-8.35L151.46,217.88z M145.33,209.83l0.47,1.73l-9.09,2.46
		l-0.47-1.73L145.33,209.83z M135.57,216.99l12.69-3.43c0.33-0.09,0.66-0.08,0.97,0l-14.5,7.85l-0.51-1.88
		C133.93,218.42,134.53,217.27,135.57,216.99L135.57,216.99z M149.16,260.14l-0.47-1.73l9.09-2.46l0.47,1.73L149.16,260.14z
		 M158.91,252.98l-11.48,3.1l12.52-6.78l0.31,1.13C160.56,251.55,159.96,252.7,158.91,252.98L158.91,252.98z M158.91,252.98"/>
</g>
<g>
	<path class="st8" d="M114.08,108.24c0.66-0.08,1.13-0.69,1.04-1.35c-0.08-0.66-0.68-1.13-1.34-1.05l-8.68,1.09l-0.14-1.15
		l8.68-1.09c1.19-0.15,1.03-1.46,1.03-1.46c-0.33-2.62-3.3-4.66-6.24-4.29l-7.81,0.98c-2.94,0.37-5.32,3.09-4.99,5.7l6.24,49.79
		c0.32,2.53,2.63,4.34,5.16,4.02c2.53-0.32,4.33-2.64,4.01-5.17l-2.25-17.98l4.26-0.53c2.94-0.37,5.32-3.09,4.99-5.7
		c0,0-0.16-1.31-1.36-1.16l-8.68,1.09l-0.14-1.15l8.68-1.09c0.66-0.08,1.13-0.69,1.04-1.35c-0.08-0.66-0.68-1.13-1.34-1.05
		l-8.68,1.09l-0.19-1.51l8.68-1.09c0.66-0.08,1.13-0.69,1.04-1.35c-0.08-0.66-0.68-1.13-1.34-1.05l-8.68,1.09l-0.19-1.51l8.68-1.09
		c0.66-0.08,1.13-0.69,1.04-1.35c-0.08-0.66-0.68-1.13-1.34-1.05l-8.68,1.09l-0.19-1.51l8.68-1.09c0.66-0.08,1.13-0.69,1.04-1.35
		c-0.08-0.66-0.68-1.13-1.34-1.05l-8.68,1.09l-0.19-1.51l8.68-1.09c0.66-0.08,1.13-0.69,1.04-1.35c-0.08-0.66-0.68-1.13-1.34-1.05
		l-8.68,1.09l-0.19-1.51L114.08,108.24z M112.74,133.36l-5.45,0.68c-0.66,0.08-1.13,0.69-1.04,1.35l2.4,19.18
		c0.15,1.21-0.71,2.33-1.92,2.48c-1.21,0.15-2.32-0.71-2.47-1.93l-6.24-49.79c-0.15-1.17,1.16-2.79,2.9-3.01l7.81-0.98
		c1.21-0.15,2.39,0.41,3.05,1.16l-8.31,1.04c-0.66,0.08-1.13,0.69-1.04,1.35l3.33,26.6c0.08,0.66,0.68,1.13,1.34,1.05l8.31-1.04
		C114.96,132.38,113.95,133.21,112.74,133.36z"/>
</g>
<g>
	<path class="st8" d="M225.07,130.33l-1.41,0.1l-1.21-17.17c-0.05-0.64-0.6-1.13-1.24-1.08l-0.15,0.01l-0.6-8.47
		c0-0.05-0.09-1.23-0.48-2.4c-0.85-2.57-2.39-2.85-3.23-2.79c-1.06,0.07-2.13,1.11-3.58,3.47c-0.9,1.46-1.6,2.88-1.63,2.94
		c-0.09,0.19-0.13,0.39-0.12,0.6l0.51,7.28l-0.15,0.01c-0.64,0.05-1.12,0.6-1.08,1.25l1.21,17.17l-1.41,0.1
		c-0.64,0.05-1.12,0.6-1.08,1.25l1.1,15.52c0.16,2.23,2.09,3.92,4.31,3.77l8.84-0.62c2.22-0.16,3.89-2.1,3.74-4.34l-1.1-15.52
		C226.26,130.77,225.71,130.29,225.07,130.33z M225.09,147.1c0.07,0.95-0.64,1.77-1.59,1.84l-8.84,0.62
		c-0.94,0.07-1.76-0.65-1.83-1.6l-1.01-14.35l12.25-0.86L225.09,147.1z M216.98,100.87c0.57,0.09,1.07,1.83,1.16,3.02l0.6,8.47
		l-4.49,0.32l-0.49-6.96C214.92,103.41,216.37,101.23,216.98,100.87z M220.21,114.6l1.13,16l-7.11,0.5l-1.13-16L220.21,114.6z"/>
</g>
<g>
	<path class="st8" d="M202.47,133.27h-0.16v-2.81c0-0.67-0.54-1.21-1.2-1.21h-1.34v-12.41h0.07c0.66,0,1.2-0.54,1.2-1.21
		s-0.54-1.21-1.2-1.21h-0.07v-0.33h0.28c0.66,0,1.2-0.54,1.2-1.21c0-0.67-0.54-1.21-1.2-1.21h-0.28v-0.33h0.76
		c0.66,0,1.2-0.54,1.2-1.21c0-0.67-0.54-1.21-1.2-1.21h-0.76v-0.33h1.32c0.66,0,1.2-0.54,1.2-1.21s-0.54-1.21-1.2-1.21h-1.32v-0.33
		h0.76c0.66,0,1.2-0.54,1.2-1.21s-0.54-1.21-1.2-1.21h-0.76v-0.33h0.28c0.66,0,1.2-0.54,1.2-1.21c0-0.67-0.54-1.21-1.2-1.21h-0.28
		v-0.33h0.07c0.66,0,1.2-0.54,1.2-1.21s-0.54-1.21-1.2-1.21h-0.07v-0.2c0-0.67-0.54-1.21-1.2-1.21c-0.66,0-1.2,0.54-1.2,1.21v0.2
		h-0.07c-0.66,0-1.2,0.54-1.2,1.21s0.54,1.21,1.2,1.21h0.07v0.33h-0.28c-0.66,0-1.2,0.54-1.2,1.21c0,0.67,0.54,1.21,1.2,1.21h0.28
		v0.33h-0.76c-0.66,0-1.2,0.54-1.2,1.21s0.54,1.21,1.2,1.21h0.76v0.33h-1.32c-0.66,0-1.2,0.54-1.2,1.21s0.54,1.21,1.2,1.21h1.32
		v0.33h-0.76c-0.66,0-1.2,0.54-1.2,1.21c0,0.67,0.54,1.21,1.2,1.21h0.76v0.33h-0.28c-0.66,0-1.2,0.54-1.2,1.21
		c0,0.67,0.54,1.21,1.2,1.21h0.28v0.33h-0.07c-0.66,0-1.2,0.54-1.2,1.21s0.54,1.21,1.2,1.21h0.07v12.41h-1.34
		c-0.66,0-1.2,0.54-1.2,1.21v2.81h-0.16c-0.66,0-1.2,0.54-1.2,1.21v17.29c0,2.22,1.8,4.03,4,4.03h2.19c2.21,0,4-1.81,4-4.03v-17.29
		C203.67,133.81,203.13,133.27,202.47,133.27z M201.27,151.77c0,0.89-0.72,1.61-1.6,1.61h-2.19c-0.88,0-1.6-0.72-1.6-1.61v-16.08
		h0.16h5.08h0.16V151.77z M197.23,131.68h2.68v1.6h-2.68V131.68z"/>
</g>
<g>
	<path class="st8" d="M249.87,100.43c-2.08-1.67-5.01-2.74-8.25-3.02c-0.01,0-0.47-0.03-0.48-0.03c-3.25-0.13-6.29,0.58-8.56,1.98
		c-2.49,1.53-3.95,3.84-4.11,6.49c-0.26,4.13,1.72,8.22,2.92,10.29c0.75,1.3,1.62,2.54,2.45,3.5c0.38,0.45,0.71,0.78,0.99,1.02
		l-2.43,32.59c-0.15,2.38,2.15,4.39,5.23,4.59c3.08,0.19,5.61-1.52,5.76-3.92l1.61-32.63c0.31-0.21,0.67-0.5,1.11-0.89
		c0.94-0.85,1.96-1.98,2.86-3.17c1.45-1.9,3.91-5.72,4.17-9.85C253.31,104.72,252.15,102.25,249.87,100.43z M237.78,155.48
		c-1.86-0.12-3.1-1.19-3.04-2.07l2.03-27.22l5.64,0.35l-1.35,27.24C241,154.68,239.64,155.6,237.78,155.48z M236.94,123.84
		l0.18-2.43l5.52,0.34l-0.12,2.44L236.94,123.84z M243.6,119.4l1.96-3.91c0.29-0.58,0.06-1.29-0.52-1.58
		c-0.58-0.29-1.28-0.06-1.57,0.52c0,0-2.42,4.84-2.43,4.86l-2.04-0.13c-0.01-0.02-1.81-5.12-1.81-5.12
		c-0.22-0.61-0.89-0.93-1.49-0.71c-0.61,0.22-0.93,0.89-0.71,1.51l1.46,4.12c-1.26-0.99-6.01-7.23-5.65-12.97
		c0.15-2.39,1.71-3.83,2.99-4.62c1.88-1.16,4.45-1.74,7.24-1.63l0.4,0.02c2.78,0.24,5.26,1.13,6.98,2.51
		c1.18,0.94,2.55,2.57,2.4,4.96C250.46,112.97,244.98,118.57,243.6,119.4z"/>
</g>
<g>
	<g>
		<path class="st8" d="M216.51,270.58l-19.32-9.1c-3.92-1.84-5.6-6.52-3.77-10.42l10.71-22.74c1.84-3.9,6.52-5.58,10.43-3.74
			l19.32,9.1c3.92,1.84,5.6,6.52,3.77,10.42l-10.71,22.74C225.11,270.75,220.43,272.42,216.51,270.58z M213.57,226.71
			c-2.74-1.29-6.01-0.12-7.3,2.61l-10.71,22.74c-1.29,2.73-0.1,6,2.63,7.29l19.32,9.1c2.74,1.29,6.01,0.12,7.3-2.61l10.71-22.74
			c1.29-2.73,0.1-6-2.63-7.29L213.57,226.71z"/>
	</g>
	<g>
		<path class="st8" d="M231.77,234.99l-16.86-7.94l2.69-5.72l16.86,7.94L231.77,234.99z M218.05,225.92l12.59,5.93l0.69-1.47
			l-12.59-5.93L218.05,225.92z"/>
	</g>
	<g>
		<path class="st8" d="M231.72,230.57l-13.38-6.3l13.05-17.24l5.31,2.5L231.72,230.57z M221.98,223.38l8.12,3.82l3.88-16.37
			l-1.85-0.87L221.98,223.38z"/>
	</g>
	<g>
		<path class="st8" d="M224.24,260.52l-24.21-11.4l6.82-14.49l24.21,11.4L224.24,260.52z M203.16,248l19.94,9.39l4.82-10.23
			l-19.94-9.39L203.16,248z"/>
	</g>
</g>
<path class="st9" d="M84.79,97.85V218.9c0,47.01,91.56,85.12,91.56,85.12s91.56-38.11,91.56-85.12V97.85
	c0,0-44.92-27.38-91.56-27.38C130.92,70.48,84.79,97.85,84.79,97.85z"/>
<path id="cadre_blanc_bas_gauche_1_" class="st9" d="M84.79,202.24v17.29c0,47.01,91.93,85.12,91.93,85.12"/>
<g>
	<path class="st8" d="M269.4,199.19h-3V98.6c-5.9-3.43-46.98-26.4-89.14-26.73l-0.92,0v-3l0.94,0c46.18,0.36,90.95,27.32,91.4,27.59
		l0.72,0.44V199.19z"/>
</g>
<path class="st9" d="M176.34,303.91c0,0,0.32-0.13,0.93-0.4"/>
<path class="st10" d="M206.78,183.69"/>
<path class="st10" d="M107.94,183.69"/>
<polyline class="st11" points="203.67,65.14 191.26,75.78 176.57,78.54 176.57,313.76 "/>
<path class="st0" d="M282.01,207.8c-70.19-7.43-140.35-7.43-210.54,0c-2.57-13.45-5.14-26.91-7.71-40.36c75.29-8,150.67-8,225.96,0
	C287.15,180.9,284.58,194.35,282.01,207.8z"/>
<g>
	<g>
		<path class="st12" d="M95.88,194.6c-0.77,0.51-2.36,1.1-4.44,1.31c-4.82,0.48-8.81-2.38-9.47-8.39
			c-0.63-5.74,2.65-10.05,8.07-10.59c2.18-0.22,3.6,0.14,4.23,0.41c-0.14,0.79-0.22,1.19-0.36,1.99c-0.9-0.35-2.15-0.56-3.6-0.42
			c-4.09,0.41-6.51,3.45-6,8.27c0.48,4.49,3.21,7.11,7.38,6.7c1.35-0.13,2.69-0.57,3.54-1.11C95.5,193.49,95.63,193.86,95.88,194.6z
			"/>
		<path class="st12" d="M108.97,187.31c0.38,4.89-2.6,7.26-5.58,7.52c-3.33,0.29-6.14-2.09-6.52-6.26
			c-0.41-4.42,2.09-7.26,5.55-7.56C106,180.7,108.65,183.27,108.97,187.31z M99.14,188.28c0.26,2.89,2.01,4.93,4.2,4.74
			c2.14-0.18,3.57-2.47,3.33-5.44c-0.18-2.24-1.47-4.99-4.15-4.76C99.84,183.04,98.91,185.77,99.14,188.28z"/>
		<path class="st12" d="M111.83,191.37c0.7,0.41,1.91,0.82,3.03,0.74c1.63-0.12,2.34-1.04,2.26-2.14c-0.08-1.15-0.77-1.75-2.47-2.27
			c-2.27-0.7-3.44-1.91-3.56-3.5c-0.16-2.13,1.33-4,4.02-4.19c1.27-0.09,2.41,0.22,3.13,0.61c-0.18,0.71-0.27,1.07-0.45,1.79
			c-0.51-0.29-1.45-0.67-2.61-0.59c-1.34,0.09-2.03,0.97-1.96,1.95c0.08,1.09,0.86,1.53,2.53,2.07c2.22,0.72,3.4,1.8,3.53,3.76
			c0.15,2.32-1.42,4.07-4.34,4.28c-1.35,0.1-2.62-0.16-3.53-0.64C111.57,192.5,111.66,192.12,111.83,191.37z"/>
		<path class="st12" d="M121.84,184.2c-0.11-1.69-0.25-3.06-0.38-4.31c0.82-0.05,1.23-0.08,2.04-0.13c0.1,0.9,0.14,1.36,0.24,2.26
			c0.02,0,0.03,0,0.05,0c0.83-1.67,2.25-2.71,4.29-2.83c3.03-0.17,5.44,2.43,5.64,6.45c0.24,4.76-2.35,7.24-5.25,7.41
			c-1.63,0.09-3.1-0.59-3.92-1.86c-0.02,0-0.03,0-0.05,0c0.17,2.88,0.26,4.31,0.44,7.19c-0.88,0.05-1.32,0.08-2.2,0.14
			C122.38,192.79,122.2,189.93,121.84,184.2z M124.29,187.59c0.02,0.36,0.09,0.68,0.16,0.98c0.51,1.64,1.93,2.71,3.54,2.62
			c2.37-0.13,3.64-2.28,3.48-5.32c-0.14-2.65-1.57-4.86-3.97-4.72c-1.55,0.09-2.92,1.35-3.25,3.18c-0.06,0.31-0.11,0.66-0.09,0.99
			C124.2,186.23,124.23,186.68,124.29,187.59z"/>
		<path class="st12" d="M135.99,172.9c0.92-0.04,1.38-0.06,2.29-0.1c0.34,7.77,0.51,11.65,0.85,19.42c-0.9,0.04-1.35,0.06-2.24,0.1
			C136.53,184.55,136.35,180.67,135.99,172.9z"/>
		<path class="st12" d="M149.73,191.82c-0.09-0.67-0.14-1-0.23-1.66c-0.03,0-0.05,0-0.08,0c-0.66,1.06-1.95,2.03-3.71,2.1
			c-2.5,0.09-3.85-1.74-3.92-3.66c-0.13-3.2,2.48-5.07,7.29-5.19c0-0.11-0.01-0.16-0.01-0.27c-0.03-1.09-0.38-3.06-2.94-2.97
			c-1.16,0.04-2.36,0.47-3.22,1.1c-0.23-0.63-0.35-0.94-0.58-1.57c1.01-0.75,2.49-1.27,4.07-1.33c3.83-0.13,4.84,2.61,4.92,5.27
			c0.06,1.98,0.09,2.97,0.14,4.95c0.03,1.15,0.12,2.27,0.3,3.17C150.96,191.78,150.55,191.8,149.73,191.82z M149.19,185.07
			c-2.47,0.02-5.25,0.59-5.15,3.16c0.06,1.56,1.06,2.26,2.21,2.22c1.61-0.06,2.59-1.18,2.92-2.32c0.07-0.25,0.11-0.52,0.1-0.77
			C149.23,186.45,149.22,185.99,149.19,185.07z"/>
		<path class="st12" d="M155.48,178.41c1.17,3.1,1.75,4.66,2.91,7.77c0.3,0.87,0.63,1.9,0.85,2.69c0.02,0,0.03,0,0.05,0
			c0.21-0.8,0.45-1.82,0.74-2.78c0.93-3.13,1.39-4.69,2.34-7.82c0.96-0.02,1.44-0.02,2.41-0.04c-1.32,3.8-1.97,5.69-3.26,9.5
			c-1.54,4.57-2.59,6.92-4.07,8.38c-1.07,1.05-2.14,1.5-2.7,1.63c-0.24-0.8-0.37-1.21-0.61-2.01c0.55-0.21,1.28-0.63,1.93-1.23
			c0.58-0.54,1.34-1.48,1.82-2.72c0.1-0.25,0.17-0.44,0.17-0.58s-0.06-0.33-0.17-0.63c-1.93-4.84-2.91-7.26-4.9-12.1
			C153.99,178.44,154.49,178.43,155.48,178.41z"/>
		<path class="st12" d="M175.25,185.61c-0.72,2.32-1.07,3.48-1.78,5.81c-0.92,0-1.38,0.01-2.29,0.01
			c2.29-7.39,3.46-11.09,5.86-18.47c1.09,0,1.64,0,2.73,0.01c2.37,7.39,3.52,11.09,5.79,18.5c-0.95-0.01-1.42-0.01-2.37-0.02
			c-0.72-2.33-1.08-3.49-1.8-5.82C178.93,185.61,177.7,185.6,175.25,185.61z M180.93,183.76c-0.67-2.13-1-3.19-1.68-5.32
			c-0.38-1.21-0.64-2.3-0.9-3.37c-0.02,0-0.03,0-0.05,0c-0.26,1.09-0.55,2.22-0.89,3.34c-0.69,2.13-1.03,3.2-1.7,5.34
			C177.8,183.74,178.84,183.75,180.93,183.76z"/>
		<path class="st12" d="M196.5,191.16c-0.59,0.31-1.9,0.72-3.56,0.69c-3.72-0.07-6.11-2.81-6.06-6.86c0.05-4.08,2.73-7.01,6.82-6.93
			c1.35,0.03,2.53,0.41,3.14,0.75c-0.22,0.74-0.34,1.11-0.56,1.85c-0.53-0.34-1.38-0.66-2.62-0.69c-2.87-0.06-4.45,2.17-4.49,4.93
			c-0.05,3.07,1.76,4.98,4.22,5.03c1.28,0.03,2.13-0.31,2.77-0.6C196.3,190.07,196.37,190.43,196.5,191.16z"/>
		<path class="st12" d="M205.95,191.93c-0.05-0.67-0.07-1.01-0.12-1.68c-0.03,0-0.05,0-0.08,0c-0.73,1.02-2.08,1.9-3.84,1.85
			c-2.5-0.08-3.72-1.99-3.67-3.91c0.08-3.2,2.8-4.89,7.62-4.7c0-0.11,0.01-0.16,0.01-0.27c0.04-1.09-0.18-3.08-2.74-3.16
			c-1.16-0.04-2.39,0.31-3.28,0.89c-0.19-0.64-0.28-0.96-0.47-1.6c1.05-0.68,2.57-1.11,4.15-1.06c3.83,0.12,4.66,2.93,4.56,5.58
			c-0.07,1.98-0.11,2.97-0.18,4.95c-0.04,1.15-0.03,2.27,0.09,3.18C207.17,191.97,206.77,191.96,205.95,191.93z M205.85,185.16
			c-2.46-0.14-5.28,0.25-5.35,2.82c-0.04,1.56,0.9,2.33,2.05,2.36c1.61,0.05,2.67-1.01,3.06-2.12c0.09-0.24,0.15-0.52,0.15-0.76
			C205.8,186.54,205.82,186.08,205.85,185.16z"/>
		<path class="st12" d="M223.1,173.23c-0.34,6.4-0.52,9.6-0.86,15.99c-0.06,1.18-0.11,2.52-0.08,3.42c-0.8-0.04-1.21-0.06-2.01-0.11
			c0.01-0.92,0.01-1.38,0.02-2.3c-0.02,0-0.03,0-0.05,0c-0.77,1.44-2.32,2.49-4.33,2.39c-2.98-0.14-5.15-2.95-5-6.96
			c0.16-4.39,2.85-7.01,5.9-6.87c1.92,0.09,3.16,1.11,3.67,2.21c0.02,0,0.03,0,0.05,0c0.16-3.16,0.24-4.74,0.4-7.9
			C221.72,173.16,222.18,173.18,223.1,173.23z M220.21,184.68c0.02-0.3,0.01-0.71-0.05-1.02c-0.26-1.55-1.43-2.87-3.14-2.95
			c-2.35-0.11-3.84,2.02-3.96,4.95c-0.11,2.68,1.02,4.95,3.44,5.06c1.51,0.07,2.94-0.93,3.44-2.71c0.09-0.32,0.14-0.65,0.16-1.03
			C220.14,186.05,220.17,185.6,220.21,184.68z"/>
		<path class="st12" d="M227.39,186.75c-0.14,3.25,1.72,4.71,3.96,4.85c1.61,0.1,2.6-0.13,3.46-0.46c0.11,0.7,0.16,1.05,0.26,1.75
			c-0.82,0.33-2.19,0.67-4.15,0.55c-3.79-0.24-5.9-3.05-5.68-7.04c0.23-3.99,2.63-7.01,6.28-6.78c4.09,0.26,4.91,4.14,4.74,6.57
			c-0.03,0.49-0.11,0.87-0.16,1.11C232.62,187.07,230.88,186.95,227.39,186.75z M234.12,185.45c0.13-1.53-0.33-3.95-2.89-4.11
			c-2.3-0.15-3.44,2.04-3.72,3.69C230.16,185.18,231.48,185.27,234.12,185.45z"/>
		<path class="st12" d="M239.23,184.05c0.1-1.37,0.16-2.49,0.16-3.58c0.8,0.06,1.19,0.09,1.99,0.15c-0.02,0.85-0.03,1.28-0.06,2.14
			c0.03,0,0.05,0,0.08,0.01c0.79-1.2,2.04-2.29,4.11-2.12c1.71,0.14,2.91,1.34,3.32,2.94c0.02,0,0.03,0,0.05,0
			c0.45-0.7,0.99-1.24,1.54-1.6c0.8-0.54,1.66-0.79,2.84-0.69c1.65,0.15,4,1.52,3.57,6.1c-0.29,3.11-0.44,4.66-0.73,7.77
			c-0.87-0.08-1.31-0.12-2.19-0.2c0.27-2.99,0.41-4.48,0.68-7.47c0.23-2.54-0.5-4.14-2.33-4.31c-1.29-0.11-2.38,0.81-2.87,1.95
			c-0.13,0.32-0.24,0.75-0.28,1.18c-0.28,3.26-0.42,4.89-0.69,8.16c-0.87-0.07-1.31-0.11-2.19-0.18c0.26-3.16,0.39-4.75,0.65-7.91
			c0.17-2.1-0.58-3.7-2.3-3.84c-1.42-0.11-2.54,1.01-2.99,2.18c-0.16,0.35-0.24,0.75-0.27,1.16c-0.24,3.19-0.36,4.78-0.6,7.97
			c-0.88-0.07-1.31-0.1-2.19-0.16C238.81,189.83,238.95,187.9,239.23,184.05z"/>
		<path class="st12" d="M261.52,182.37c0.79,3.22,1.17,4.84,1.94,8.06c0.19,0.9,0.39,1.97,0.51,2.78c0.02,0,0.03,0,0.05,0.01
			c0.31-0.77,0.67-1.75,1.08-2.67c1.3-2.99,1.96-4.49,3.28-7.47c0.96,0.1,1.44,0.15,2.4,0.26c-1.77,3.61-2.65,5.41-4.4,9.03
			c-2.08,4.35-3.42,6.55-5.07,7.82c-1.19,0.92-2.31,1.23-2.88,1.28c-0.14-0.83-0.22-1.24-0.36-2.07c0.57-0.14,1.35-0.47,2.06-0.98
			c0.64-0.46,1.51-1.31,2.14-2.48c0.13-0.24,0.22-0.42,0.24-0.55c0.01-0.14-0.02-0.33-0.09-0.64c-1.33-5.04-2-7.56-3.38-12.6
			C260.04,182.22,260.53,182.27,261.52,182.37z"/>
	</g>
</g>
<g>
	<g>
		<path class="st13" d="M165.09,334.96c1.09,0,2.17-0.15,3.19-0.47c1.03-0.31,2.01-0.78,2.91-1.39c0.55-0.37,1.08-0.77,1.58-1.19
			c1.2,6.72,5.86,12.37,12.39,14.78c2.59,0.96,4.95,0.8,7.34,0.08c7.58-2.3,13.26-9.15,13.71-17.5l0.83-15.2c0,0,0-0.01,0-0.01
			l0.28-5.09c0.03-0.53-0.29-1.01-0.79-1.2c-9.43-3.47-19.59-4.27-29.43-2.31l-4.12-13.57c-0.15-0.51-0.62-0.85-1.15-0.86
			c-5.44-0.02-10.84,0.77-16.04,2.35s-10.13,3.92-14.64,6.97c-0.44,0.3-0.63,0.84-0.48,1.35l5.92,19.51c1.21,4,3.63,7.43,6.98,9.92
			C156.93,333.62,160.91,334.95,165.09,334.96z"/>
		<polygon class="st14" points="181.16,334.13 183.54,329.91 189.2,327.24 194.63,329.23 197.61,333.66 197.94,336.57 
			190.12,333.74 182.62,334.73 		"/>
		<polygon class="st14" points="155.15,319.56 159.74,319.2 166.25,317.29 170.53,314.77 169.92,322.44 164.33,325.17 
			157.45,323.65 		"/>
	</g>
	<g>
		<path class="st15" d="M164.88,335.58c1.13,0,2.24-0.16,3.3-0.48c1.06-0.32,2.07-0.8,3.01-1.43c0.57-0.38,1.11-0.8,1.64-1.23
			c1.24,6.94,6.05,12.78,12.8,15.26c2.68,0.99,5.11,0.83,7.58,0.08c7.83-2.38,13.69-9.44,14.16-18.07l0.85-15.7c0,0,0-0.01,0-0.01
			l0.29-5.25c0.03-0.55-0.3-1.05-0.81-1.24c-9.74-3.59-20.22-4.41-30.39-2.39l-4.26-14.01c-0.16-0.52-0.64-0.88-1.19-0.88
			c-5.62-0.02-11.19,0.8-16.56,2.43c-5.37,1.63-10.46,4.05-15.12,7.19c-0.45,0.31-0.65,0.87-0.5,1.39l6.12,20.14
			c1.25,4.13,3.74,7.67,7.21,10.25C156.46,334.19,160.57,335.56,164.88,335.58z M205.96,309.52l-0.14,2.6
			c-3.4-1.24-6.91-2.11-10.47-2.61c-0.68-0.1-1.31,0.38-1.41,1.06c-0.1,0.68,0.38,1.31,1.06,1.41c3.64,0.51,7.22,1.43,10.68,2.75
			l-0.81,14.84c-0.42,7.74-5.75,14.19-13.27,16.07c-1.7,0.42-3.47,0.33-5.12-0.28c-6.46-2.38-10.9-8.27-11.42-15.1
			c2.52-2.88,4.13-6.4,4.71-10.1c0.41,0.02,0.83-0.16,1.08-0.52c0.5-0.71,1.31-1.1,2.17-1.05c0.92,0.05,1.74,0.6,2.13,1.44
			c0.29,0.62,1.03,0.9,1.65,0.61c0.62-0.29,0.9-1.03,0.61-1.65c-0.78-1.68-2.41-2.78-4.25-2.88c-1.14-0.06-2.24,0.27-3.14,0.9
			c0-1.57-0.19-3.14-0.57-4.69c2.44-0.45,4.91-0.71,7.37-0.78c0.11,0,0.22-0.02,0.33-0.05c0.52-0.16,0.9-0.65,0.88-1.23
			c-0.02-0.69-0.59-1.23-1.28-1.21c-2.67,0.08-5.35,0.37-7.99,0.86l-0.73-2.4C187.36,305.69,196.97,306.39,205.96,309.52z
			 M143.86,306.43c3.06-2.11,6.34-3.88,9.78-5.24c0.64-0.25,0.95-0.98,0.7-1.62c-0.25-0.64-0.98-0.95-1.62-0.7
			c-3.36,1.34-6.59,3.04-9.61,5.06l-0.77-2.54c4.24-2.76,8.84-4.9,13.68-6.37c4.84-1.47,9.85-2.25,14.91-2.32l0.77,2.54
			c-3.61,0-7.22,0.38-10.73,1.13c-0.67,0.14-1.1,0.8-0.96,1.48c0.14,0.67,0.8,1.1,1.48,0.96c3.59-0.77,7.28-1.12,10.97-1.07
			l4.32,14.22c1.8,5.94,0.31,12.45-3.91,17c0,0,0,0,0,0c-0.91,0.99-1.94,1.87-3.07,2.63c-1.45,0.98-3.15,1.5-4.91,1.49
			c-3.78-0.01-7.38-1.21-10.41-3.47c-3.03-2.26-5.21-5.36-6.31-8.97L143.86,306.43z"/>
		<path class="st16" d="M154.46,317.79c-0.43-0.1-0.89,0.04-1.19,0.36c-0.3,0.32-0.41,0.79-0.28,1.21c1.6,5.26,7.17,8.23,12.43,6.64
			c5.26-1.6,8.24-7.15,6.64-12.43c-0.13-0.42-0.47-0.75-0.91-0.85c-0.43-0.1-0.89,0.03-1.19,0.36c-1.95,2.06-4.41,3.59-7.12,4.41
			C160.12,318.32,157.23,318.42,154.46,317.79z M164.7,323.62c-3.23,0.98-6.62-0.34-8.4-3.02c2.44,0.23,4.91-0.01,7.26-0.73
			c2.35-0.71,4.54-1.89,6.44-3.44C170.02,319.6,167.98,322.62,164.7,323.62z"/>
		<path class="st16" d="M163.58,307.5c0.67,0.16,1.34-0.26,1.5-0.92c0.2-0.86,0.86-1.56,1.7-1.81c0.89-0.27,1.85-0.02,2.49,0.63
			c0.49,0.49,1.27,0.49,1.76,0c0.49-0.49,0.49-1.27,0-1.76c-1.3-1.3-3.21-1.79-4.98-1.25c-1.69,0.51-2.99,1.9-3.4,3.62
			C162.5,306.67,162.91,307.35,163.58,307.5z"/>
		<path class="st16" d="M150.78,310.92c0.2-0.86,0.86-1.56,1.7-1.81c0.89-0.27,1.85-0.02,2.49,0.63c0.49,0.49,1.27,0.49,1.76,0
			c0.49-0.49,0.49-1.27,0-1.76c-1.3-1.3-3.21-1.79-4.98-1.25c-1.69,0.51-2.99,1.9-3.4,3.62c-0.16,0.67,0.26,1.34,0.92,1.5
			C149.95,312,150.62,311.59,150.78,310.92z"/>
		<path class="st16" d="M179.59,335.85c-0.02,0.44,0.19,0.87,0.56,1.11c0.37,0.24,0.84,0.27,1.24,0.07
			c5.07-2.55,11.22-2.32,16.17,0.88c0.37,0.24,0.85,0.26,1.24,0.06c0.4-0.2,0.65-0.6,0.68-1.04c0.06-1.17-0.07-2.32-0.41-3.43
			c-1.21-3.99-4.83-6.83-9-7.05C184.59,326.14,179.89,330.36,179.59,335.85z M196.69,334.22c0.04,0.14,0.08,0.28,0.11,0.42
			c-4.59-2.19-9.73-2.37-14.3-0.77c1.09-3.02,4.07-5.11,7.44-4.93C193.07,329.09,195.78,331.22,196.69,334.22z"/>
		<path class="st16" d="M194,320.86c0.57,0.38,1.35,0.22,1.72-0.36c0.49-0.74,1.34-1.17,2.22-1.12c0.95,0.05,1.75,0.63,2.12,1.44
			c0.29,0.62,1.03,0.9,1.65,0.61c0.62-0.29,0.9-1.03,0.61-1.65c-0.76-1.65-2.38-2.78-4.25-2.88c-1.76-0.09-3.46,0.76-4.43,2.24
			C193.26,319.71,193.42,320.48,194,320.86z"/>
	</g>
</g>
<g>
	<path class="st8" d="M154.64,114.78c1.03,1.05,4.01,0.53,4.04,0.52c1.39-0.26,2.39-0.44,3.29-0.94c1.22-0.68,2.05-1.89,2.64-2.87
		c0.97-1.62,1.24-4,0.64-5.53c-0.3-0.76-0.79-1.25-1.45-1.44c0,0,0,0,0,0l-0.01,0c-0.19-0.05-0.38-0.09-0.57-0.11
		c-1.13-0.13-2.27,0.31-3.03,1.2c-1.03,1.22-2.52,3.01-3.74,4.62c-0.7,0.93-1.23,1.69-1.57,2.27
		C154.57,113,153.94,114.07,154.64,114.78z M161.59,106.8c0.41-0.48,1.06-0.68,1.68-0.5l0,0c0.08,0.02,0.16,0.14,0.24,0.34
		c0.39,1,0.16,2.78-0.5,3.9c-0.46,0.78-1.11,1.73-1.94,2.19c-0.64,0.35-1.52,0.52-2.73,0.74c-0.43,0.08-1.34,0.13-1.94,0.07
		C156.92,112.64,158.37,110.59,161.59,106.8z"/>
	<path class="st8" d="M127.14,116.34c0.43,0.23,0.87,0.47,1.33,0.72c4.04,2.24,5.44,7.69,5.46,7.74c0.08,0.32,0.32,0.57,0.63,0.66
		c0.21,0.06,0.43,0.05,0.63-0.03l2.08,4.41l-7.38,12.27c-0.01,0.01-0.02,0.03-0.02,0.04c-3.78,7.02-3.04,10.82-3.01,10.98
		c0.07,0.35,0.34,0.63,0.69,0.71c0.35,0.08,0.72-0.04,0.94-0.33l12.5-15.78l8.54,18.14c0.15,0.33,0.48,0.53,0.84,0.53
		c0.36,0,0.69-0.21,0.84-0.54c0.07-0.15,1.62-3.69-0.5-11.38c0-0.01-0.01-0.03-0.01-0.04l-4.41-13.4l3.12-3.94
		c0.13,0.05,0.28,0.08,0.42,0.07c0.33-0.02,0.61-0.22,0.76-0.51c0.03-0.05,2.59-5.04,7.04-6.34c0.51-0.15,0.99-0.28,1.46-0.41
		c4.1-1.13,6.8-1.88,9.48-7.41c0.86-1.77,1.28-4,1.17-6.13c-0.12-2.33-0.88-4.3-2.12-5.55c-0.93-0.94-2.01-1.37-3.08-1.49
		c-1.76-0.2-3.52,0.43-4.66,0.97c-0.13,0.06-0.24,0.15-0.33,0.26l-15.01,18.72c-0.26,0.32-0.27,0.78-0.03,1.12l0.84,1.19
		c-0.79,0.81-1.61,0.91-2.13,0.87c-0.13-0.08-0.29-0.13-0.45-0.13c-0.02,0-1.43-0.05-2.45-1.45l0.93-0.84
		c0.31-0.28,0.39-0.72,0.21-1.09l-10.48-21.58c-0.06-0.13-0.15-0.24-0.26-0.32c-0.99-0.78-2.56-1.78-4.32-1.98
		c-1.07-0.12-2.22,0.06-3.34,0.77c-1.49,0.94-2.66,2.7-3.29,4.94c-0.58,2.05-0.66,4.32-0.22,6.23
		C120.93,113,123.4,114.33,127.14,116.34z M124.05,97.41c1.48-0.94,3.28-0.61,5.35,0.97l10.08,20.76l-0.98,0.88l-0.61,0.55
		l-2.62,2.36c-0.75-2-2.51-5.61-5.9-7.49c-0.47-0.26-0.92-0.5-1.35-0.73c-3.53-1.9-5.47-2.95-6.67-8.11
		C120.55,103.13,121.81,98.83,124.05,97.41z M142.34,125.02l1.87,5.68l0.69,2.11l4.02,12.22c0.94,3.43,1.09,5.9,1.03,7.43
		l-7.68-16.32l-0.88-1.87l-2.02-4.29l-0.95-2.02l-1.76-3.75l0.4-0.36l1.87-1.69l0,0c0.63,0.81,1.36,1.3,2.01,1.6
		c0.41,0.19,0.8,0.3,1.1,0.37L142.34,125.02z M128.82,150.11c0.28-1.51,0.97-3.9,2.66-7.06l6.73-11.19l1.89,4.01L128.82,150.11z
		 M160.87,101.92c2.38-1.08,4.2-1,5.44,0.24c1.87,1.89,2.15,6.35,0.59,9.56c-2.31,4.77-4.44,5.36-8.31,6.43
		c-0.47,0.13-0.96,0.27-1.48,0.42c-3.72,1.08-6.24,4.21-7.41,6l-3.27-4.64L160.87,101.92z M146.43,123.14l1.77,2.51l-2.61,3.29
		l-1.54-4.67C144.81,124.17,145.65,123.84,146.43,123.14z"/>
	<path class="st8" d="M125.57,110.27c0.77,0.69,1.7,1.09,3,1.65c0.03,0.01,2.82,1.18,4.05,0.39c0.83-0.53,0.46-1.72,0.28-2.29
		c-0.2-0.64-0.55-1.5-1.02-2.56c-0.82-1.84-1.88-3.91-2.62-5.33c-0.54-1.03-1.55-1.71-2.68-1.84c-0.19-0.02-0.39-0.03-0.58-0.02
		l-0.01,0c0,0,0,0-0.01,0c-0.69,0.04-1.27,0.41-1.73,1.08c-0.93,1.36-1.19,3.74-0.6,5.53C123.99,107.97,124.53,109.34,125.57,110.27
		z M125.78,102.4c0.12-0.18,0.23-0.27,0.31-0.28l0.01,0c0.63-0.04,1.23,0.3,1.52,0.86c2.3,4.41,3.26,6.73,3.56,7.73
		c-0.59-0.08-1.47-0.33-1.87-0.5c-1.13-0.49-1.95-0.84-2.5-1.33c-0.71-0.63-1.12-1.71-1.4-2.57
		C125,105.08,125.17,103.29,125.78,102.4z"/>
	<path class="st8" d="M140.22,124.94c-0.63,0.04-1.17,0.52-1.24,1.17c-0.03,0.25,0.02,0.49,0.12,0.7c0.19,0.41,0.57,0.71,1.05,0.77
		c0.26,0.03,0.51-0.02,0.73-0.13c0.39-0.19,0.68-0.57,0.73-1.04c0.01-0.06,0-0.12,0-0.18c-0.02-0.65-0.5-1.21-1.17-1.28
		C140.37,124.94,140.29,124.94,140.22,124.94z"/>
</g>
<g>
	<g>
		<defs>
			<rect id="SVGID_1_" x="121.77" y="12.05" width="109.87" height="69.71"/>
		</defs>
		<clipPath id="SVGID_2_">
			<use xlink:href="#SVGID_1_"  style="overflow:visible;"/>
		</clipPath>
		<polygon class="st17" points="155.73,72.19 148.73,62.57 148.73,42.13 130.94,32.33 177.1,15.5 227.53,33.86 205.03,43.85 
			205.34,63.85 191.26,75.78 165.56,76.7 		"/>
		<path class="st18" d="M228.98,29.64l-51-17.39c-0.83-0.28-1.72-0.28-2.54,0l-51,17.39c-1.6,0.54-2.67,2.05-2.67,3.73
			c0,1.69,1.07,3.19,2.67,3.73l19.82,6.74v20.55c0,0.98,0.37,1.93,1.03,2.66c8.1,8.89,19.64,13.98,31.65,13.98
			c11.9,0,22.95-4.76,31.13-13.42c0.69-0.73,1.07-1.7,1.07-2.71V43.88l8.19-2.79v9.91c-0.92,0.72-1.52,1.84-1.52,3.1v9.62
			c0,2.18,1.76,3.94,3.94,3.94c2.18,0,3.94-1.76,3.94-3.94v-9.62c0-1.26-0.59-2.38-1.52-3.1V39.42l6.8-2.32
			c1.6-0.54,2.67-2.05,2.67-3.73C231.65,31.69,230.58,30.19,228.98,29.64L228.98,29.64z M201.27,63.29
			c-6.55,6.37-15.12,9.85-24.32,9.85c-9.31,0-18.26-3.75-24.8-10.33V46.53l23.4,7.96c0.41,0.14,0.84,0.21,1.27,0.21
			c0.43,0,0.86-0.07,1.27-0.21l23.17-7.92L201.27,63.29L201.27,63.29z M176.82,46.59l-38.88-13.22l38.77-13.22l38.8,13.22
			L176.82,46.59z M176.82,46.59"/>
	</g>
</g>
<text transform="matrix(1 0 0 1 353 185)"><tspan x="0" y="0" class="st8 st19 st20">Cosplay</tspan><tspan x="393.95" y="0" class="st19 st20"> </tspan><tspan x="419.39" y="0" class="st5 st19 st20">Academy</tspan></text>
<text transform="matrix(1 0 0 1 353.3379 266.7202)" class="st8 st19 st21">Apprentissage de la costumade</text>
</svg>
