<?xml version="1.0" encoding="UTF-8"?>
<svg width="57px" height="44px" viewBox="0 0 57 44" version="1.1" xmlns="http://www.w3.org/2000/svg" xmlns:xlink="http://www.w3.org/1999/xlink">
    <!-- Generator: Sketch 51.2 (57519) - http://www.bohemiancoding.com/sketch -->
    <title>envelope</title>
    <desc>Created with Sketch.</desc>
    <defs></defs>
    <g id="2.-RERCHERCHE-PRO-:-DÉPOT-D'OFFRE" stroke="none" stroke-width="1" fill="none" fill-rule="evenodd">
        <g id="Desktop-HD-Copy-20" transform="translate(-698.000000, -854.000000)" fill="#FF601B" fill-rule="nonzero" stroke="#FF601B">
            <g id="envelope" transform="translate(699.000000, 855.000000)">
                <path d="M48.2857157,0 L6.72563233,0 C3.01572346,0 0,3.02610114 0,6.74877651 L0,35.2512235 C0,38.9738989 3.01572346,42 6.72563233,42 L48.2743356,42 C51.9842444,42 54.9999679,38.9738989 54.9999679,35.2512235 L54.9999679,6.76019576 C55.011348,3.03752039 51.9956245,0 48.2857157,0 Z M51.9387241,35.2512235 C51.9387241,37.2724307 50.2999913,38.9168026 48.2857157,38.9168026 L6.72563233,38.9168026 C4.71135665,38.9168026 3.0726239,37.2724307 3.0726239,35.2512235 L3.0726239,6.76019576 C3.0726239,4.73898858 4.71135665,3.09461664 6.72563233,3.09461664 L48.2743356,3.09461664 C50.2886112,3.09461664 51.927344,4.73898858 51.927344,6.76019576 L51.927344,35.2512235 L51.9387241,35.2512235 Z" id="Shape"></path>
                <path d="M34.1228538,21.1293515 L47.4701861,8.75958136 C48.0912548,8.17610164 48.1477156,7.18418611 47.5831076,6.53068882 C47.0184997,5.88886112 46.0586662,5.83051315 45.4263052,6.41399287 L27.0200857,23.4866096 L23.429179,20.1724448 C23.4178869,20.1607752 23.4065947,20.1491056 23.4065947,20.137436 C23.3275496,20.0557488 23.2485045,19.9857313 23.1581672,19.9157137 L8.54611316,6.40232328 C7.91375224,5.81884356 6.95391871,5.87719153 6.38931075,6.53068882 C5.82470279,7.18418611 5.88116358,8.17610164 6.5135245,8.75958136 L20.0189469,21.2343779 L6.5699853,34.2459757 C5.9602087,34.841125 5.92633222,35.8330406 6.50223234,36.4748682 C6.80712064,36.8016169 7.21363837,36.9766608 7.6201561,36.9766608 C7.99279736,36.9766608 8.36543861,36.8366257 8.65903475,36.5565554 L22.3112553,23.3582441 L26.0150835,26.7774352 C26.3086796,27.0458359 26.6700287,27.1742015 27.0313778,27.1742015 C27.3927269,27.1742015 27.7653682,27.0341663 28.0476722,26.7657656 L31.8531298,23.2415481 L45.4263052,36.568225 C45.7199014,36.8599649 46.1038348,37 46.476476,37 C46.8829938,37 47.2782193,36.8366257 47.5831076,36.509877 C48.1590078,35.8797189 48.1364235,34.8761338 47.5266469,34.2809845 L34.1228538,21.1293515 Z" id="Shape"></path>
            </g>
        </g>
    </g>
</svg>